<?xml version="1.0" encoding="UTF-8"?>
<svg id="Layer_1" data-name="Layer 1" xmlns="http://www.w3.org/2000/svg" viewBox="0 0 418.21 137.87">
  <defs>
    <style>
      .cls-1 {
        fill: #e53340;
      }

      .cls-2 {
        fill: #fff;
      }

      .cls-3 {
        fill: #1f448f;
      }
    </style>
  </defs>
  <g>
    <path class="cls-1" d="M40.78,36.3c-5.96,0-10.8,4.84-10.8,10.8v43.68c0,5.96,4.84,10.8,10.8,10.8h43.68c5.96,0,10.8-4.84,10.8-10.8v-54.48h-54.48Z"/>
    <g>
      <circle class="cls-2" cx="67.5" cy="67.63" r="6.6"/>
      <rect class="cls-2" x="43.99" y="47.66" width="8.97" height="33.7"/>
      <rect class="cls-2" x="52.48" y="81.25" width="29.27" height="8.97"/>
    </g>
  </g>
  <g>
    <polygon class="cls-3" points="118.43 36.29 110.29 36.29 110.29 78.73 138.13 78.73 138.13 72.4 118.43 72.4 118.43 36.29"/>
    <path class="cls-3" d="M165.37,48.23h0c-2.18-1.67-5.6-2.51-10.15-2.51-4.84,0-8.45.88-10.73,2.6-2.36,1.79-3.56,4.74-3.56,8.77v11.96c0,6.84,4.98,10.3,14.79,10.3,3.57,0,7.28-.43,11.05-1.28l.83-.19v-6.49l-1.35.35c-3.76.97-7.06,1.47-9.79,1.47s-4.74-.4-6.04-1.19c-1.16-.7-1.72-1.9-1.72-3.67v-3.54h20.08v-7.74c0-4.15-1.14-7.14-3.4-8.86ZM148.7,59.06v-3.73c0-1.5.41-2.45,1.26-2.93,1.02-.57,2.69-.86,4.96-.86s4.05.29,4.98.87c.79.49,1.18,1.44,1.18,2.92v3.73h-12.37Z"/>
    <path class="cls-3" d="M187.78,45.72c-3.3,0-7.06.19-11.16.57l-.97.09v6.26l1.22-.16c3.72-.49,7.12-.74,10.11-.74,3.39,0,4.69.46,5.16.73.67.39.99,1.21.99,2.5v3.79h-7.88c-4.56,0-7.6.71-9.3,2.17-1.74,1.49-2.58,4.03-2.58,7.75,0,4.25.9,7.04,2.76,8.53,1.8,1.45,4.82,2.15,9.24,2.15,3.66,0,6.27-.48,7.94-1.48v.85h7.52v-22.45c0-4.24-.85-7-2.6-8.45-1.7-1.41-5.12-2.1-10.46-2.1ZM191.2,73.21c-.85.18-1.62.29-2.28.32h0c-.69.04-1.57.06-2.62.06h-1.11c-1.77,0-2.99-.31-3.44-.88-.3-.38-.8-1.37-.8-3.85,0-2.94.52-3.71.67-3.87.15-.16.88-.67,4-.67h7.51v7.23c0,.43-.12.74-.38.98-.33.3-.85.53-1.55.67Z"/>
    <path class="cls-3" d="M216.75,47.58h0c-.37.24-.72.48-1.02.73v-1.97h-7.4v32.38h7.71v-22.39c0-1.45.42-2.39,1.28-2.86,1.05-.57,2.77-.87,5.12-.87h.21l2.73-6.89h-2.57c-2.06,0-4.09.63-6.05,1.86Z"/>
    <path class="cls-3" d="M246.46,45.72c-3.99,0-6.92.66-8.75,1.95v-1.32h-7.71v32.38h7.71v-22.96c0-1.54.4-2.58,1.19-3.08.52-.33,1.99-.89,5.95-.89,1.29,0,2.35.12,3.18.36.68.2,1.17.48,1.42.8.31.41.51.81.6,1.17.1.42.16.98.16,1.64v22.96h7.71v-23.27c0-3.19-.85-5.64-2.53-7.27-1.71-1.66-4.62-2.47-8.92-2.47Z"/>
    <path class="cls-3" d="M281.31,52.11l3.23-5.76h-8.89v-10.06h-7.77v10.06h-3.93l-2.97,5.76h6.9v16.75c0,4.01.84,6.71,2.57,8.25,1.71,1.51,4.51,2.25,8.57,2.25,2.23,0,4.39-.17,6.43-.52l.89-.15v-5.76l-1.23.18c-2.79.4-3.87.49-4.29.49-2.91,0-3.93-.51-4.28-.82-.57-.51-.89-1.78-.89-3.59v-17.07h5.67Z"/>
    <path class="cls-3" d="M313.57,48.23h0c-2.19-1.67-5.6-2.51-10.15-2.51-4.84,0-8.45.88-10.73,2.6-2.36,1.79-3.56,4.74-3.56,8.77v11.96c0,6.84,4.98,10.3,14.79,10.3,3.56,0,7.28-.43,11.06-1.28l.83-.19v-6.49l-1.35.35c-3.76.97-7.06,1.47-9.79,1.47s-4.74-.4-6.04-1.19c-1.16-.7-1.72-1.9-1.72-3.67v-3.54h20.08v-7.74c0-4.15-1.15-7.14-3.4-8.86ZM296.89,59.06v-3.73c0-1.5.41-2.45,1.26-2.93,1.02-.57,2.69-.86,4.96-.86s4.05.29,4.98.87c.79.49,1.18,1.44,1.18,2.92v3.73h-12.37Z"/>
    <path class="cls-3" d="M336.96,73.34c-3.94,0-5.34-.56-5.83-.9-.74-.52-1.13-1.75-1.13-3.58v-12.4c0-2.74.63-3.66,1.01-3.97.41-.33,1.64-.88,5.33-.88,2.82,0,5.82.41,8.92,1.22l1.35.35v-6.31l-.83-.18c-2.91-.64-5.86-.97-8.76-.97-1.58,0-2.86.03-3.81.1-.96.07-2.07.2-3.31.39-1.37.21-2.48.59-3.31,1.14-.78.51-1.54,1.19-2.25,2-.76.87-1.33,2-1.67,3.36-.33,1.29-.49,2.82-.49,4.57v11.15c0,2,.27,3.71.81,5.09.55,1.4,1.22,2.51,2,3.27.81.8,1.97,1.4,3.44,1.81,1.37.37,2.61.6,3.68.66,1.03.06,2.47.1,4.3.1,3.72,0,7.02-.3,9.81-.9l.84-.18v-6.43l-1.35.35c-2.98.77-5.92,1.16-8.74,1.16Z"/>
    <path class="cls-3" d="M377.32,48.19c-1.71-1.66-4.63-2.47-8.92-2.47-3.99,0-6.92.66-8.75,1.95v-11.38h-7.71v42.44h7.71v-22.89c0-1.49.38-2.52,1.12-3.06.47-.34,1.87-.92,6.02-.92,1.29,0,2.35.12,3.18.36.69.2,1.17.47,1.42.81.31.41.51.8.6,1.17.1.42.16.97.16,1.64v22.89h7.71v-23.27c0-3.19-.85-5.64-2.53-7.27Z"/>
  </g>
  <g>
    <path class="cls-3" d="M378.16,42.32v-5h-1.78v-1.02h4.78v1.02h-1.78v5h-1.21Z"/>
    <path class="cls-3" d="M382.42,42.32v-6.01h1.82l1.09,4.1,1.08-4.1h1.82v6.01h-1.13v-4.73l-1.19,4.73h-1.17l-1.19-4.73v4.73h-1.13Z"/>
  </g>
  <g>
    <path class="cls-3" d="M117.7,99.21h-5.44l-.89,1.96h-2.12l4.66-10.4h2.14l4.66,10.4h-2.14l-.88-1.96ZM114.98,92.96l-1.93,4.43h3.86l-1.93-4.43Z"/>
    <path class="cls-3" d="M132.01,90.76h1.96v10.41h-1.22s-5.47-7.01-5.47-7.01v7.01h-1.96v-10.4h1.59l5.1,6.45v-6.46Z"/>
    <path class="cls-3" d="M148.5,99.87c-1.07,1.05-2.45,1.55-3.95,1.55-3.86,0-5.5-2.66-5.51-5.36-.01-2.72,1.75-5.48,5.51-5.48,1.41,0,2.75.53,3.82,1.59l-1.31,1.26c-.68-.67-1.6-.98-2.51-.98-2.51,0-3.6,1.87-3.58,3.61.01,1.72,1.01,3.52,3.58,3.52.91,0,1.93-.37,2.61-1.05l1.34,1.35Z"/>
    <path class="cls-3" d="M160.25,101.19v-4.2h-5.11v4.2h-1.96v-10.4h1.96v4.38h5.11v-4.38h1.95v10.4h-1.95Z"/>
    <path class="cls-3" d="M177.83,96.03c-.03,2.69-1.68,5.38-5.33,5.38s-5.35-2.63-5.35-5.36,1.75-5.48,5.35-5.48,5.36,2.75,5.33,5.47ZM169.08,96.08c.04,1.71.97,3.54,3.42,3.54s3.37-1.84,3.4-3.55c.03-1.75-.95-3.71-3.4-3.71s-3.46,1.98-3.42,3.73Z"/>
    <path class="cls-3" d="M192.06,101.17h-2.33l-3.03-3.48h-1.89v3.48h-1.96v-10.41c1.65,0,3.3.01,4.95.01,2.45.01,3.74,1.65,3.74,3.45,0,1.43-.65,2.87-2.63,3.27l3.15,3.55v.13ZM184.81,92.6v3.33h2.99c1.25,0,1.78-.83,1.78-1.66s-.55-1.66-1.78-1.66h-2.99Z"/>
    <path class="cls-3" d="M196.45,101.17v-10.4h1.95v10.4h-1.95Z"/>
    <path class="cls-3" d="M210.64,90.76h1.96v10.41h-1.22s-5.47-7.01-5.47-7.01v7.01h-1.96v-10.4h1.59l5.1,6.45v-6.46Z"/>
    <path class="cls-3" d="M225.69,93.31c-.7-.67-1.74-1.04-2.64-1.04-2.23,0-3.58,1.69-3.58,3.83,0,1.71,1,3.48,3.58,3.48.82,0,1.53-.18,2.35-.83v-1.84h-2.66v-1.75h4.46v4.38c-1.03,1.17-2.32,1.87-4.14,1.87-3.91,0-5.5-2.57-5.5-5.3,0-2.93,1.83-5.63,5.5-5.63,1.4,0,2.79.53,3.86,1.59l-1.22,1.25Z"/>
    <path class="cls-3" d="M243.31,95.07l2.76-4.29h2.36v.09l-4.14,6.02v4.29h-1.96v-4.29l-4-6.02v-.09h2.33l2.64,4.29Z"/>
    <path class="cls-3" d="M263.09,96.03c-.03,2.69-1.68,5.38-5.33,5.38s-5.35-2.63-5.35-5.36,1.75-5.48,5.35-5.48,5.36,2.75,5.33,5.47ZM254.34,96.08c.04,1.71.97,3.54,3.42,3.54s3.37-1.84,3.4-3.55c.03-1.75-.95-3.71-3.4-3.71s-3.46,1.98-3.42,3.73Z"/>
    <path class="cls-3" d="M277.22,90.79v5.96c0,3.08-1.89,4.65-4.5,4.65s-4.62-1.52-4.62-4.65v-5.96h1.95v5.96c0,1.87,1.07,2.87,2.69,2.87s2.54-1.08,2.54-2.87v-5.96h1.95Z"/>
    <path class="cls-3" d="M291.93,101.17h-2.33l-3.03-3.48h-1.89v3.48h-1.96v-10.41c1.65,0,3.3.01,4.95.01,2.45.01,3.74,1.65,3.74,3.45,0,1.43-.65,2.87-2.63,3.27l3.15,3.55v.13ZM284.68,92.6v3.33h2.99c1.25,0,1.78-.83,1.78-1.66s-.55-1.66-1.78-1.66h-2.99Z"/>
    <path class="cls-3" d="M302.87,101.17v-10.38h7.47v1.89h-5.51v2.84h5.21v1.81h-5.21v3.85h-1.96Z"/>
    <path class="cls-3" d="M324.38,90.79v5.96c0,3.08-1.89,4.65-4.5,4.65s-4.62-1.52-4.62-4.65v-5.96h1.95v5.96c0,1.87,1.07,2.87,2.69,2.87s2.54-1.08,2.54-2.87v-5.96h1.95Z"/>
    <path class="cls-3" d="M332.55,92.56h-3.3v-1.78h8.56v1.78h-3.3v8.62h-1.96v-8.62Z"/>
    <path class="cls-3" d="M352,90.79v5.96c0,3.08-1.89,4.65-4.5,4.65s-4.62-1.52-4.62-4.65v-5.96h1.95v5.96c0,1.87,1.07,2.87,2.69,2.87s2.54-1.08,2.54-2.87v-5.96h1.95Z"/>
    <path class="cls-3" d="M366.71,101.17h-2.33l-3.03-3.48h-1.89v3.48h-1.96v-10.41c1.65,0,3.3.01,4.95.01,2.45.01,3.74,1.65,3.74,3.45,0,1.43-.65,2.87-2.63,3.27l3.15,3.55v.13ZM359.46,92.6v3.33h2.99c1.25,0,1.78-.83,1.78-1.66s-.55-1.66-1.78-1.66h-2.99Z"/>
    <path class="cls-3" d="M378.84,101.17h-7.78v-10.4h7.78v1.9h-5.84v2.39h5.63v1.83h-5.63v2.35h5.84v1.93Z"/>
  </g>
</svg>